PathFileType	4	(X/Y/Z)	/Users/niels/Desktop/University/Third Semester/Perception and Action/Exam/Gymnastics Motion Tracking/Code for Gym Tracking/Analyzed Data/Start Salto/stsalto_bad_id14_1_Sports2D/stsalto_bad_id14_1_Sports2D_px_person00.trc
DataRate	CameraRate	NumFrames	NumMarkers	Units	OrigDataRate	OrigDataStartFrame	OrigNumFrames
29.83695652173913	29.83695652173913	10	22	m	29.83695652173913	92	184
Frame#	Time	Hip			RHip			RKnee			RAnkle			RBigToe			RSmallToe			RHeel			LHip			LKnee			LAnkle			LBigToe			LSmallToe			LHeel			Neck			Head			Nose			RShoulder			RElbow			RWrist			LShoulder			LElbow			LWrist		
		X1	Y1	Z1	X2	Y2	Z2	X3	Y3	Z3	X4	Y4	Z4	X5	Y5	Z5	X6	Y6	Z6	X7	Y7	Z7	X8	Y8	Z8	X9	Y9	Z9	X10	Y10	Z10	X11	Y11	Z11	X12	Y12	Z12	X13	Y13	Z13	X14	Y14	Z14	X15	Y15	Z15	X16	Y16	Z16	X17	Y17	Z17	X18	Y18	Z18	X19	Y19	Z19	X20	Y20	Z20	X21	Y21	Z21	X22	Y22	Z22
92	3.0834244080145723	1.074946521900788	-0.340556132998894	0.0	1.078616143336169	-0.33924048182456035	0.0	1.025625666849214	-0.20468471624220755	0.0	1.1458598329432808	-0.15521409708455522	0.0	1.1552948048110947	-0.09224303611927809	0.0	1.1658618860241459	-0.10113424722251557	0.0	1.167814680394654	-0.16409868540353773	0.0	1.0671161967672278	-0.3383066467608403	0.0	1.025717931533224	-0.21049005797091183	0.0	1.1412298637198015	-0.20882098298530702	0.0	1.1633967434518095	-0.12671339371055923	0.0	1.159118123808377	-0.13316547446446456	0.0	1.1636166413990552	-0.2162752720535791	0.0	0.8939469238873824	-0.3596407762007928	0.0	0.8174537249133305	-0.34739651578478653	0.0	0.8674311666012966	-0.32365230769525843	0.0	0.9089899931779161	-0.3619545851755783	0.0	0.9399930331412701	-0.2897668627837046	0.0	0.8941093961287552	-0.2389571161030723	0.0	0.9057120919969494	-0.3641587537431031	0.0	0.9205667358151978	-0.29945621149688845	0.0	0.8934621143354013	-0.2513619368064624	0.0
93	3.1169398907103827	1.0798925625969065	-0.3477211356832841	0.0	1.0845456886368559	-0.34725135955830727	0.0	1.0478161850308336	-0.20671119639416877	0.0	1.1703028152403894	-0.1644936402854481	0.0	1.18205653979516	-0.10406709510934282	0.0	1.192970751364093	-0.1121994934381023	0.0	1.193821836533842	-0.17358311277285984	0.0	1.0736767005812644	-0.34470837697429496	0.0	1.047296948161471	-0.21196829558433175	0.0	1.164176911842264	-0.21769283655758437	0.0	1.1888659249117834	-0.1455937744201829	0.0	1.185328422219491	-0.14526475486138868	0.0	1.1865894413970466	-0.22783394331881218	0.0	0.8989316178811211	-0.35723865912227376	0.0	0.8228763650264828	-0.3403332890433868	0.0	0.8755288830581816	-0.3182777144834445	0.0	0.9137522464245964	-0.3614545750853478	0.0	0.9487755565228985	-0.29383974688525705	0.0	0.9019163013808223	-0.24231495324140606	0.0	0.910420041064998	-0.3611892238030128	0.0	0.9330085558366094	-0.3007512007572954	0.0	0.9003684748082912	-0.2556261337022556	0.0
94	3.1504553734061935	1.0847713251370223	-0.3543217160797442	0.0	1.0900742646088482	-0.35474539757133794	0.0	1.069714409325307	-0.2095718914466155	0.0	1.1938787523932612	-0.17460744950543627	0.0	1.2078997834395528	-0.11845665722514137	0.0	1.2191088130039396	-0.12567396099458325	0.0	1.218522031859777	-0.18440881917385893	0.0	1.0804342423659739	-0.35024315535948836	0.0	1.0685499237074503	-0.21435534728498204	0.0	1.1864804457733356	-0.22766381160522606	0.0	1.213394162892891	-0.1661342000902195	0.0	1.210564300962677	-0.1592840263737989	0.0	1.208362240902047	-0.24046159656326913	0.0	0.9045830760182993	-0.3550700401591544	0.0	0.8294404115327524	-0.33337101089419735	0.0	0.8841396038795918	-0.3133471911090766	0.0	0.9185462530068635	-0.3614383221917303	0.0	0.957245060118672	-0.2983481290774085	0.0	0.9096884440158897	-0.24587427499431366	0.0	0.915941572490092	-0.3583294085986871	0.0	0.9449962990457792	-0.3029000202631351	0.0	0.9076242327300044	-0.2595486724466964	0.0
95	3.183970856102004	1.0898626113056902	-0.36046159997053057	0.0	1.0953122535076127	-0.36156499910994844	0.0	1.0912055934924907	-0.21338108599051678	0.0	1.2165753517991047	-0.18573789909091018	0.0	1.2333861588623414	-0.13497935837985647	0.0	1.2445348881028662	-0.14156299225155158	0.0	1.2416981575483972	-0.197082199053804	0.0	1.087470629897441	-0.3550991027601073	0.0	1.0894399094440201	-0.2178194707529005	0.0	1.208057588150559	-0.23872158670456334	0.0	1.2371601208871474	-0.1854781086398936	0.0	1.2350007368016351	-0.17359226338010308	0.0	1.2291518200016966	-0.2539021054698696	0.0	0.9112657729727034	-0.352928803198573	0.0	0.8375951938956614	-0.3264117036995626	0.0	0.8934361071006286	-0.3090191494388109	0.0	0.9234559227010496	-0.3618768853353201	0.0	0.9651398327187902	-0.30327043491420175	0.0	0.9174973723396626	-0.249497896296163	0.0	0.9228225001402899	-0.35556369374464786	0.0	0.956416964032612	-0.30573313735275004	0.0	0.9154625101763262	-0.2623909752644811	0.0
96	3.2174863387978148	1.0951795410928933	-0.3663091860700632	0.0	1.100372957306909	-0.3677497434333957	0.0	1.1124613634191285	-0.218287753193428	0.0	1.23852221260991	-0.1982770459270085	0.0	1.2590865833144107	-0.1529234973726434	0.0	1.2696521586551157	-0.15954174419511657	0.0	1.263426383547438	-0.21193885072142052	0.0	1.0946344713723233	-0.35965132467320665	0.0	1.1101745689938465	-0.2226058851359014	0.0	1.229157866535406	-0.25090361557432744	0.0	1.2604874551243446	-0.20202506610344478	0.0	1.2591418934365597	-0.1873823681445464	0.0	1.2492425333406696	-0.268032841736437	0.0	0.9190054861565069	-0.3507625657422893	0.0	0.8471374702419397	-0.3196185724510357	0.0	0.9033352069323345	-0.3054424758075564	0.0	0.9285792201509249	-0.3626638429837713	0.0	0.9724224411450247	-0.3085679141465843	0.0	0.9252834507040573	-0.2532173119582314	0.0	0.9312797537689798	-0.3528177298872797	0.0	0.9670590134386086	-0.3087871648113751	0.0	0.9238423141211076	-0.2638730268370688	0.0
97	3.251001821493625	1.100544615551443	-0.3719114278648965	0.0	1.105344226680942	-0.37336096527754153	0.0	1.133465791931046	-0.22438591431916372	0.0	1.2595811077028425	-0.2125465633677687	0.0	1.2848547617885417	-0.1715679274805152	0.0	1.2943632275966936	-0.17893809159349114	0.0	1.2836256690644452	-0.22875629010851772	0.0	1.1015788673172753	-0.3641660651859781	0.0	1.1306849684394344	-0.22888815714763894	0.0	1.249814540011425	-0.26414629436983483	0.0	1.28323505238403	-0.2164646528538659	0.0	1.2831304773613046	-0.20129937774601908	0.0	1.2684469816669666	-0.28275717109700826	0.0	0.927364361475365	-0.34861911402684775	0.0	0.8570861699543403	-0.31345421375237925	0.0	0.9132955097430263	-0.3027104184957718	0.0	0.9339398745354591	-0.3635281728977633	0.0	0.9791487321277247	-0.31410508504506207	0.0	0.9327445156506644	-0.2572397509471053	0.0	0.9409135928007875	-0.3500607919942617	0.0	0.9763372864824811	-0.3113350257551062	0.0	0.9323698106306233	-0.26418261389785297	0.0
98	3.2845173041894355	1.1058118458463797	-0.37717317138495343	0.0	1.1103166073294692	-0.3784300850619595	0.0	1.1540180758059324	-0.2317283196806523	0.0	1.279536839358263	-0.228650098868834	0.0	1.3100304778096183	-0.190666405261629	0.0	1.3182054868975612	-0.19914688671839223	0.0	1.302242292991176	-0.24681797976442796	0.0	1.1080389137131206	-0.368645737856722	0.0	1.1506522133517278	-0.2366562998797271	0.0	1.2697037153679003	-0.27831663793437383	0.0	1.304936159598293	-0.2309295608253627	0.0	1.3066659147142918	-0.21692282513787722	0.0	1.286282418307295	-0.29799364202538453	0.0	0.9357346305506025	-0.34650896477966603	0.0	0.8663384743605156	-0.3081553641894018	0.0	0.922701983548365	-0.300749050407177	0.0	0.9395619716483912	-0.36412919374712277	0.0	0.9853623490664911	-0.31974231340414483	0.0	0.9395395625155748	-0.26188546530641676	0.0	0.9509667869073177	-0.34730875110106685	0.0	0.9836865815463705	-0.31264165995472165	0.0	0.9406244525577908	-0.2636072141377499	0.0
99	3.3180327868852464	1.1109656950416713	-0.3818878054990521	0.0	1.1153693567015488	-0.38296435004011364	0.0	1.173941262365476	-0.2403611703154644	0.0	1.2983747562781303	-0.2463957071768951	0.0	1.334064733233525	-0.21038340108441525	0.0	1.3408145852348896	-0.21983348878170136	0.0	1.3195214077247286	-0.26536164471349644	0.0	1.1140248168170788	-0.3728816791014591	0.0	1.1698225985975237	-0.24573225276587107	0.0	1.2883785419967289	-0.2933308645406197	0.0	1.3253245513037106	-0.24740969407918617	0.0	1.3293122172725034	-0.23569293941620917	0.0	1.3024470851397103	-0.3136873835154672	0.0	0.9436519523919316	-0.34442347268855344	0.0	0.8743892220044623	-0.30353077157233727	0.0	0.9313006331236909	-0.29934345499490167	0.0	0.945517271342476	-0.3643279326078459	0.0	0.9909937179040332	-0.3253790626267282	0.0	0.9455575697466245	-0.2673747869072674	0.0	0.9607366715430964	-0.3446268693446321	0.0	0.9889643735153425	-0.3122587262146664	0.0	0.9484301095683179	-0.2624723452524617	0.0
100	3.351548269581057	1.116091682926865	-0.38584906547797515	0.0	1.1205221089498076	-0.38696774872048134	0.0	1.193102540156495	-0.25030915062072806	0.0	1.3161496490855475	-0.2652359930679672	0.0	1.3567311071508499	-0.2305920218029615	0.0	1.3620297813788678	-0.24056521967980418	0.0	1.3358221704880462	-0.2839343941430908	0.0	1.1197850276217591	-0.3766588649524841	0.0	1.1880975209465334	-0.2558839862443764	0.0	1.305468263188928	-0.30904153562250364	0.0	1.3444961329026823	-0.266527236373433	0.0	1.3505984522398287	-0.25798318994988323	0.0	1.317001649079461	-0.32965788184623424	0.0	0.9509191841962598	-0.3424797276036573	0.0	0.8815429948560939	-0.29935123376340234	0.0	0.939305568940753	-0.2982821486821809	0.0	0.9518769286283246	-0.3642809082250142	0.0	0.9958161019421135	-0.3308638009010705	0.0	0.9510217489480239	-0.27356187668090504	0.0	0.9697447541987657	-0.34218976648858035	0.0	0.9925002166946427	-0.31026099882342445	0.0	0.9558891139057233	-0.26134700876916006	0.0
101	3.385063752276867	1.121433418658612	-0.3890855886110915	0.0	1.1258641088691836	-0.3905096897678424	0.0	1.2114478169783462	-0.2615950670688948	0.0	1.3329326168893336	-0.28453870149217836	0.0	1.3780811330663636	-0.2506038884794755	0.0	1.3819116524651385	-0.2606228786388518	0.0	1.3514785865318542	-0.3024632598177446	0.0	1.1257617299489115	-0.37997976587245347	0.0	1.2055414411420786	-0.2670241334893671	0.0	1.3209274756658003	-0.3251196394290851	0.0	1.3627299734471283	-0.28758309765492546	0.0	1.3700778696836913	-0.28303288215119693	0.0	1.330427767127555	-0.34558682763978243	0.0	0.9576817278798885	-0.3409587467127131	0.0	0.8886492427826805	-0.29561707235287626	0.0	0.947290585083835	-0.2974697869802139	0.0	0.9587155838078397	-0.36426689291717623	0.0	0.9995936268851249	-0.3360782445936787	0.0	0.9563901696178406	-0.28000025212735313	0.0	0.9778034082581512	-0.34031248027668	0.0	0.9949954171917706	-0.3074501910849179	0.0	0.9633131480988925	-0.2610519483055975	0.0
